# xmcd CD database file
#
# Track frame offsets:
#	150
#	24755
#	35710
#	52639
#	74000
#	85511
#	97087
#	120140
#	133492
#	168329
#	207717
#	220750
#	241537
#	258890
#	284839
#	303075
#	318550
#
# Disc length: 4423 seconds
#
# Revision: 0
# Processed by: cddbd v1.5.2PL0 Copyright (c) Steve Scherf et al.
# Submitted via: CDex 1.70beta2
#
DISCID=ec114511
DTITLE=Various Artist - Haynes - Ultimate Guide to Jazz - CD1
DYEAR=2011
DGENRE=Jazz
TTITLE0=The Dave Brubeck Quartet - Take Five
TTITLE1=George Benson - Summertime
TTITLE2=Astrud Gilberto and Stanley Turrentine - Ponteio
TTITLE3=Stan Getz and Joao Gilberto - Aguas de Marco
TTITLE4=Jose Feliciano - Nena na na
TTITLE5=Peter White - Hit The Road Jack
TTITLE6=Lyambiko - Summer Samba
TTITLE7=Doris Day - Quiet Nights of Quiet Stars
TTITLE8=Bill Evans - Waltz for Debby
TTITLE9=Chet Baker - My Funny Valentine
TTITLE10=Neil Hefti - Girl Talk
TTITLE11=Stanley Turrentine - I Haven't Got Anything Better To Do
TTITLE12=Thelonious Monk - 'Round Midnight
TTITLE13=Charles Mingus - Goodbye Pork Pie Hat
TTITLE14=Eliane Elias - Save Your Love For Me
TTITLE15=Oscar Peterson Trio - My Heart Stood Still
TTITLE16=Billie Holiday - God Bless The Child
EXTD=YEAR: 2011
EXTT0=
EXTT1=
EXTT2=
EXTT3=
EXTT4=
EXTT5=
EXTT6=
EXTT7=
EXTT8=
EXTT9=
EXTT10=
EXTT11=
EXTT12=
EXTT13=
EXTT14=
EXTT15=
EXTT16=
PLAYORDER=
